<?xml version="1.0" encoding="UTF-8" standalone="no"?>
<svg width="49px" height="49px" viewBox="0 0 49 49" version="1.1" xmlns="http://www.w3.org/2000/svg" xmlns:xlink="http://www.w3.org/1999/xlink" xmlns:sketch="http://www.bohemiancoding.com/sketch/ns">
    <!-- Generator: Sketch 3.4.4 (17249) - http://www.bohemiancoding.com/sketch -->
    <title>Group Copy</title>
    <desc>Created with Sketch.</desc>
    <defs>
        <filter x="-50%" y="-50%" width="200%" height="200%" filterUnits="objectBoundingBox" id="filter-1">
            <feOffset dx="0" dy="2" in="SourceAlpha" result="shadowOffsetOuter1"></feOffset>
            <feGaussianBlur stdDeviation="2" in="shadowOffsetOuter1" result="shadowBlurOuter1"></feGaussianBlur>
            <feColorMatrix values="0 0 0 0 0   0 0 0 0 0   0 0 0 0 0  0 0 0 0.35 0" in="shadowBlurOuter1" type="matrix" result="shadowMatrixOuter1"></feColorMatrix>
            <feMerge>
                <feMergeNode in="shadowMatrixOuter1"></feMergeNode>
                <feMergeNode in="SourceGraphic"></feMergeNode>
            </feMerge>
        </filter>
        <circle id="path-2" cx="20.5" cy="20.5" r="20.5"></circle>
    </defs>
    <g id="assets" stroke="none" stroke-width="1" fill="none" fill-rule="evenodd" sketch:type="MSPage">
        <g id="Group-Copy" sketch:type="MSLayerGroup" transform="translate(4.000000, 2.000000)">
            <g id="Oval-19" filter="url(#filter-1)">
                <use fill="#FF5722" fill-rule="evenodd" sketch:type="MSShapeGroup" xlink:href="#path-2"></use>
                <use fill="none" xlink:href="#path-2"></use>
                <use fill="none" xlink:href="#path-2"></use>
            </g>
            <g id="Shape-+-Shape-+-Oval-1" transform="translate(3.281250, 4.281250)" fill="#FFFFFF" sketch:type="MSShapeGroup">
                <g id="Shape-+-Shape" transform="translate(7.015046, 6.006944)">
                    <path d="M17.3882495,19.9518149 C11.0695583,19.9518149 5.05175722,16.858294 1.22615508,11.7163606 C0.151547736,10.2950131 -0.14934232,8.45562233 0.409453498,6.99247055 C0.753327848,6.07277514 1.44107655,5.44571009 2.25777813,5.27849274 C2.51568389,5.2366884 2.73060536,5.19488407 2.98851112,5.19488407 C4.66489858,5.19488407 6.38427033,6.44901417 7.11500332,8.28840499 C9.04929654,13.2213167 13.6916003,16.8164897 19.1935899,17.6943808 C19.8383543,17.7779894 20.3111815,18.2378371 20.3111815,18.7812935 C20.3111815,19.2411412 19.9243229,19.7427933 19.1506056,19.8264019 C18.5488255,19.9100106 17.9470453,19.9518149 17.3882495,19.9518149 L17.3882495,19.9518149 Z M2.98851112,6.07277514 C2.81657395,6.07277514 2.60165248,6.07277514 2.4297153,6.11457947 C1.87091948,6.23999249 1.44107655,6.65803585 1.18317079,7.2851009 C0.710343554,8.45562233 1.01123361,10.0023828 1.87091948,11.1729042 C5.56756875,16.105816 11.3274641,19.0739239 17.3452652,19.0739239 C17.904061,19.0739239 18.4628569,19.0321195 19.0216527,18.9903152 C19.2365742,18.9485109 19.4085113,18.8649022 19.4085113,18.7394892 C19.4085113,18.6140762 19.2795584,18.5304675 19.0216527,18.4886632 C13.2617573,17.6525764 8.36154784,13.8483818 6.34128603,8.62283968 C5.69652163,7.11788356 4.36400852,6.07277514 2.98851112,6.07277514 L2.98851112,6.07277514 Z" id="Shape"></path>
                    <path d="M1.91390378,6.28179682 C1.7849509,6.28179682 1.65599802,6.23999249 1.57002943,6.15638381 C1.52704514,6.07277514 -0.278295202,3.9825583 0.194532029,0.680015698 C0.237516323,0.470994015 0.452437792,0.303776668 0.66735926,0.303776668 C0.882280729,0.345581004 1.0542179,0.554602688 1.0542179,0.763624372 C0.624374967,3.73173228 2.21479383,5.5711231 2.21479383,5.61292743 C2.38673101,5.78014478 2.34374672,6.0309708 2.17180954,6.19818815 C2.12882525,6.23999249 1.99987237,6.28179682 1.91390378,6.28179682 L1.91390378,6.28179682 Z" id="Shape"></path>
                </g>
                <path d="M17.21875,32.4375 C26.728403,32.4375 34.4375,25.1761183 34.4375,16.21875 C34.4375,7.26138171 26.728403,0 17.21875,0 C7.70909696,0 0,7.26138171 0,16.21875 C0,25.1761183 7.70909696,32.4375 17.21875,32.4375 Z M17.21875,31.2361111 C26.0239843,31.2361111 33.162037,24.5126095 33.162037,16.21875 C33.162037,7.92489048 26.0239843,1.20138889 17.21875,1.20138889 C8.41351571,1.20138889 1.27546296,7.92489048 1.27546296,16.21875 C1.27546296,24.5126095 8.41351571,31.2361111 17.21875,31.2361111 Z" id="Oval-1"></path>
            </g>
        </g>
    </g>
</svg>