<?xml version="1.0" encoding="UTF-8" standalone="no"?>
<svg width="566px" height="350px" viewBox="0 0 566 350" version="1.1" xmlns="http://www.w3.org/2000/svg" xmlns:xlink="http://www.w3.org/1999/xlink" xmlns:sketch="http://www.bohemiancoding.com/sketch/ns">
    <!-- Generator: Sketch 3.4.3 (16618) - http://www.bohemiancoding.com/sketch -->
    <title>sriracha decal</title>
    <desc>Created with Sketch.</desc>
    <defs>
        <ellipse id="path-1" cx="199.057604" cy="36.6409396" rx="6.61520737" ry="4.20469799"></ellipse>
        <ellipse id="path-2" cx="66.7534562" cy="126.741611" rx="6.61520737" ry="5.40604027"></ellipse>
        <ellipse id="path-3" cx="35.4815668" cy="4.20469799" rx="6.61520737" ry="4.20469799"></ellipse>
        <ellipse id="path-4" cx="89.0046083" cy="23.4261745" rx="3.60829493" ry="4.20469799"></ellipse>
        <ellipse id="path-5" cx="20.4470046" cy="23.4261745" rx="2.40552995" ry="3.0033557"></ellipse>
        <ellipse id="path-6" cx="126.290323" cy="52.2583893" rx="2.40552995" ry="3.0033557"></ellipse>
        <ellipse id="path-7" cx="188.834101" cy="28.2315436" rx="2.40552995" ry="3.0033557"></ellipse>
        <ellipse id="path-8" cx="232.735023" cy="79.8892617" rx="6.61520737" ry="4.20469799"></ellipse>
        <ellipse id="path-9" cx="222.511521" cy="71.4798658" rx="2.40552995" ry="3.0033557"></ellipse>
        <ellipse id="path-10" cx="254.384793" cy="151.969799" rx="6.61520737" ry="4.20469799"></ellipse>
        <ellipse id="path-11" cx="244.16129" cy="143.560403" rx="2.40552995" ry="3.0033557"></ellipse>
        <ellipse id="path-12" cx="72.1658986" cy="45.0503356" rx="2.40552995" ry="3.0033557"></ellipse>
        <path id="path-13" d="M22.0818675,7.91810135 C13.0277328,12.1268309 4.52329546,23.5734226 1.53412117,35.268376 C-1.92092269,48.7860142 2.46734509,59.9894492 15.185542,64.150112 C23.4087002,66.8402566 29.6790524,66.0199737 34.5276523,61.9856879 C38.1118295,59.0034671 40.1833798,55.4711425 43.7878399,47.5093981 C43.7807706,47.5250133 44.2494467,46.4889817 44.3822998,46.196008 C49.2831516,35.388425 52.5459216,31.2161073 58.8708144,29.8629482 C68.8136003,27.7357705 78.7036692,28.5456551 79.8429898,33.820475 C82.3235814,45.3051043 81.8945613,52.5113199 76.4779469,55.7959918 C71.7216243,58.6802584 67.3821951,60.9137962 62.8551324,62.9084658 C60.3665305,64.004969 53.2827833,66.8515471 52.8000891,67.056323 C45.393601,70.1984161 41.4936865,73.3375462 37.5342867,80.2132998 C36.1941519,82.5405306 34.8742816,85.2993171 33.5140778,88.6147688 C32.0786572,92.113559 31.7112751,95.2192689 31.5498785,101.510537 C31.5450927,101.697087 31.5409555,101.793503 31.5171006,102.306088 C31.4910092,102.866728 31.4792369,103.200112 31.4763912,103.578426 C31.4534567,106.627369 32.1366897,108.68488 34.7719232,109.269652 C50.315342,112.71882 63.0001816,110.334337 73.9664632,102.818665 C82.351997,97.0716926 88.5858637,89.712251 97.9652466,75.9980788 C98.5510632,75.1415204 101.557689,70.7176811 102.402927,69.4853818 C115.120517,50.9439877 123.183925,43.7560376 135.436217,43.2982631 C148.720032,42.8019484 162.07778,42.8031061 175.455873,43.2982942 C179.143831,43.4348034 180.850671,43.7324153 182.235318,44.6709603 C183.795968,45.7288037 185.078496,47.7257089 185.73882,50.0346292 C186.315644,52.0515803 186.249941,54.2915905 185.675752,57.9231535 C183.848154,69.482111 174.553206,80.2057788 159.87525,89.0548136 C147.38771,96.5832924 131.728077,102.169791 118.907356,104.102569 C111.115067,105.27729 104.827534,105.954184 90.6375511,107.279403 C90.5111578,107.291207 90.5111578,107.291207 90.3847573,107.303012 C78.4672074,108.416058 72.956836,108.989236 66.2381545,109.897605 C62.129807,110.453056 60.2145133,110.985597 58.2650316,112.712298 C50.6178282,119.485601 45.9392869,124.30707 42.174661,129.828094 C37.3310667,136.931483 34.8891618,144.313025 35.1231266,152.498256 C35.1921025,154.911369 37.0373613,156.208683 39.5076174,156.95966 C91.5114789,172.769233 149.776979,163.031274 180.923513,127.695787 C188.488336,119.113557 194.736171,110.369248 199.553607,101.364683 C200.181697,100.190682 200.776873,98.9847726 201.345217,97.7403057 C202.635302,94.9154909 203.756653,91.9721782 204.895848,88.5389675 C205.330888,87.2278781 205.748405,85.9106216 206.28397,84.1760491 C206.380553,83.8632414 206.478155,83.5461287 206.608329,83.122464 C206.768405,82.6013021 206.768405,82.6013021 206.926765,82.086066 C207.181371,81.2582377 207.368511,80.6540595 207.55198,80.0695863 C209.95969,72.3993757 211.754105,68.6982554 214.593746,66.3474464 C217.97225,63.5505366 223.071989,62.9833611 231.22229,65.0848227 C237.155087,66.6145261 240.042977,67.8385978 242.07916,70.1469717 C243.722464,72.0099483 244.680507,74.5862851 245.426925,78.603807 C245.586082,79.460453 245.618584,79.6568939 245.9713,81.8417327 C245.974329,81.8604921 245.974329,81.8604921 245.977359,81.8792508 C247.103318,88.8493379 247.236727,92.0866141 246.078658,95.4326555 C241.828386,107.713085 234.623748,118.214244 224.286353,128.068489 C216.191759,135.784757 207.723589,142.004486 192.287253,152.183971 C191.207269,152.896165 187.41281,155.391923 186.701313,155.860733 C178.823326,161.05159 174.027051,164.325987 169.200242,167.900281 C168.071313,168.736263 166.933804,170.252564 166.303852,171.721403 C165.301191,174.059273 165.475103,176.436825 167.961944,177.41732 C173.845013,179.736859 205.262662,179.012924 212.642404,177.538464 C218.754146,176.317347 224.523602,173.883745 229.22958,170.426025 C232.269047,168.192775 234.220081,166.011256 238.234667,160.855576 C240.140198,158.408423 240.995575,157.347395 242.105024,156.106882 L238.517042,152.90557 C237.310402,154.254757 236.409789,155.371896 234.436998,157.905427 C230.694942,162.711114 228.940235,164.673113 226.378733,166.555178 C222.262235,169.579777 217.14492,171.738301 211.698718,172.826443 C205.156096,174.133649 174.526695,174.83942 169.728418,172.947587 C170.217241,173.140316 170.542401,173.631745 170.572066,174.037307 C170.573155,174.052187 170.613378,173.876727 170.726235,173.613581 C171.0358,172.891779 171.658219,172.062094 172.065527,171.760479 C176.803503,168.251967 181.541093,165.017633 189.350572,159.871917 C190.059572,159.404752 193.855064,156.908315 194.938032,156.194152 C210.601127,145.865132 219.247365,139.514614 227.607991,131.544748 C238.469366,121.191012 246.106938,110.058829 250.625691,97.0026686 C252.135773,92.6395458 251.980598,88.8740796 250.72699,81.1138018 C250.724,81.0952895 250.724,81.0952895 250.721009,81.0767625 C250.36021,78.8418551 250.326529,78.6382943 250.157226,77.7270388 C249.265686,72.9284112 248.042062,69.6378832 245.689022,66.9702944 C242.79549,63.6899635 239.277818,62.1989502 232.424815,60.4319821 C222.917161,57.9805426 216.267995,58.72004 211.523625,62.6476875 C207.729298,65.7888385 205.640164,70.097837 202.961271,78.6319513 C202.774497,79.2269561 202.584908,79.8390386 202.327812,80.6749635 C202.168861,81.1921227 202.168861,81.1921227 202.008985,81.7126326 C201.879402,82.1343757 201.782385,82.4495868 201.686568,82.7599135 C201.160029,84.4652504 200.751726,85.7534386 200.329066,87.0272188 C199.240339,90.3083337 198.178245,93.0961079 196.968051,95.7459925 C196.440643,96.9008231 195.889928,98.0166486 195.310376,99.0999247 C190.679173,107.75639 184.644657,116.202142 177.312518,124.520394 C147.572232,158.260505 91.2647864,167.671213 40.9084972,152.362514 C40.4790953,152.231973 40.0846178,152.055842 39.847654,151.889244 C39.7833858,151.84406 39.7600718,151.821913 39.775971,151.844644 C39.8602187,151.965091 39.9261584,152.14881 39.9322269,152.361119 C39.5610674,139.376146 45.8877083,130.09779 61.4570666,116.307653 C62.4238181,115.451379 63.7460837,115.083727 66.8834973,114.659547 C73.5151497,113.762944 78.980443,113.194455 90.8326671,112.08751 C90.9590501,112.075707 90.9590501,112.075707 91.0854401,112.063903 C105.365759,110.730248 111.713444,110.046878 119.62537,108.854121 C133.066328,106.82784 149.327365,101.026793 162.361394,93.1688476 C178.136186,83.6585529 188.338419,71.8881428 190.427917,58.6727462 C191.104137,54.3958758 191.186502,51.5878027 190.364848,48.7147678 C189.416104,45.3973413 187.520606,42.4460393 184.936881,40.6947329 C182.539172,39.0695118 180.226109,38.666196 175.634042,38.4962214 C162.137068,37.9966329 148.659908,37.9954649 135.256377,38.4962524 C127.360073,38.791277 120.510025,41.9073756 114.073272,47.645279 C109.06369,52.1109621 104.793441,57.497784 98.4339538,66.7694895 C97.5814942,68.0123185 94.5723922,72.4398005 93.9926076,73.2875392 C84.932541,86.5348194 78.9946883,93.5447993 71.2444825,98.8563541 C61.3857363,105.612984 50.0657561,107.740901 35.8153464,104.578659 C36.1592195,104.654967 36.3812596,104.894177 36.4081849,104.975261 C36.3286927,104.735875 36.2823598,104.27332 36.2873153,103.614529 C36.2895625,103.315792 36.2996185,103.031011 36.3229712,102.529218 C36.3488224,101.973738 36.3533286,101.868721 36.3593597,101.633628 C36.5059605,95.9191085 36.8257291,93.2159045 37.9658689,90.4368513 C39.2500221,87.3067705 40.479729,84.7364431 41.7047213,82.6091648 C45.0976713,76.7170878 48.177025,74.2384458 54.680906,71.4792704 C55.0932264,71.3043495 62.2196147,68.4406362 64.7969054,67.3050559 C69.5086537,65.229012 74.0329537,62.9003197 78.9747281,59.903594 C83.4948893,57.1625373 85.6668218,52.4966102 86.0247283,46.4848849 C86.2705501,42.3558367 85.7339033,38.3075223 84.5458531,32.8070943 C83.3688244,27.3576934 78.5149252,24.7240697 71.5276076,24.1518876 C67.0529375,23.7854628 61.9075962,24.2988865 57.8631646,25.1641596 C53.2059861,26.1605248 49.5227547,28.6849645 46.4491518,32.6153818 C44.1759669,35.5222522 42.5802941,38.5227906 39.9998054,44.2134024 C39.8658929,44.5087125 39.3962563,45.5468672 39.4041257,45.5294847 C36.1082442,52.8096226 34.2680901,55.9473796 31.4483332,58.2935631 C27.9630013,61.1935395 23.4209883,61.7877223 16.6830316,59.5834503 C6.66590258,56.3064216 3.31129548,47.7419665 6.19567165,36.457029 C8.84842688,26.0782938 16.4620489,15.8306996 24.1118249,12.274773 L22.0818675,7.91810135 L22.0818675,7.91810135 Z"></path>
    </defs>
    <g id="assets" stroke="none" stroke-width="1" fill="none" fill-rule="evenodd" sketch:type="MSPage">
        <g id="pastaImage" sketch:type="MSLayerGroup" transform="translate(-126.000000, -622.000000)">
            <g id="sriracha-decal" transform="translate(127.000000, 623.000000)">
                <g id="Sriracha-Bottle" transform="translate(282.000000, 0.000000)" sketch:type="MSShapeGroup">
                    <g id="bottle" transform="translate(46.000000, 0.000000)">
                        <path d="M197.999634,23.5871031 C198.01871,23.5655448 198.02832,23.5546869 198.02832,23.5546869 C198.02832,23.5546869 234.652109,56.5089421 235.824531,62.9391525 C231.874175,68.7494861 126.854914,210.706086 121.183696,216.758551 C107.798074,231.044022 84.8088573,219.822364 73.1733249,227.868082 C61.5377926,235.913799 46.786926,238.356297 51.860445,246.309961 C56.933964,254.263624 49.4570352,257.757812 49.4570352,257.757812 C49.4570352,257.757812 30.7726526,232.936685 28.4260008,229.794794 C28.3172784,229.649228 28.2697015,229.439505 28.2810619,229.168031 C28.1767566,229.158354 28.0853752,229.132205 28.0071614,229.089286 C24.5692564,227.202738 0.458333358,214.181818 0.458333358,214.181818 C0.458333358,214.181818 3.11783851,204.444805 11.7001953,208.362013 C20.2825521,212.279221 20.6483552,197.331979 26.9964192,184.689935 C33.3444832,172.047891 19.0325536,150.844157 31.3160807,135.600649 C36.5203624,129.142284 162.479594,5.38852264 167.683599,0.667968577 C171.95878,0.842162603 187.662237,14.3069194 197.999633,23.5871041 Z" id="Path-10" stroke="#B71C1C" stroke-width="2" fill="#FF5722"></path>
                        <path d="M35.8434745,139.799897 C30.607985,143.980151 32.1608073,154.897727 32.1608073,154.897727 L34.6177379,179.318183 L41.1998038,179.318183 L43.3983956,159.074436 L53.6468087,146.314935 C53.6468087,146.314935 41.078964,135.619644 35.8434745,139.799897 Z" id="Path-11" fill="#FF8A65"></path>
                    </g>
                    <g id="nozzle" transform="translate(0.000000, 214.000000)">
                        <path d="M6.43836342,93.7757175 L3.61381464,91.423597 C3.61381464,91.423597 1.63084615,88.8127739 0.817854388,87.8555134 C0.029707929,86.9275072 0.817854388,84.1372454 0.817854388,84.1372454 L10.1758397,71.3577756 L10.1758397,68.6242053 L23.7090238,51.8628698 L23.3837496,49.202803 L27.6580554,45.059993 C27.6580554,45.059993 17.9849608,35.9449228 20.6843552,29.8701119 C23.3837497,23.7953009 42.7578921,5.20904973 42.7578921,5.20904973 C42.7578921,5.20904973 42.7953749,1.59470486 46.3816496,0.38506488 C49.9679243,-0.824575096 65.1370088,7.60868596 65.1370088,7.60868596 L77.5176998,17.3447649 C77.5176998,17.3447649 86.7570691,29.1106582 87.4049478,30.5050302 C88.7333643,33.3640631 96.5488402,42.752235 94.1277041,47.307553 C91.7065679,51.862871 92.2319656,49.7914648 92.2319656,49.7914648 L90.4893347,50.8756416 L66.2049499,72.4831397 C66.2049499,72.4831397 64.6306741,75.9770913 48.2811999,66.7790137 C45.795902,70.0042971 44.5087819,70.9262593 44.5087819,70.9262593 C44.5087819,70.9262593 42.7578902,70.6018323 41.8881649,70.60183 C38.4645272,74.4480914 26.2082983,84.0586757 26.2082983,84.0586757 C26.2082983,84.0586757 24.1867711,84.9014337 23.09977,84.1372484 C22.0127689,83.373063 9.00370912,93.7757133 9.00370912,93.7757133 L6.43836342,93.7757175 Z" id="Path-4" stroke="#1B5E20" stroke-width="2" fill="#4CAF50"></path>
                        <path d="M5.05993489,86.1876315 C9.46430779,82.2625813 13.0456698,79.0109006 18.6776141,74.0519481 C20.4189744,77.1017102 21.7346836,80.6831052 21.734683,81.887676 C21.7346824,83.0922467 8.21420491,92.5051317 8.21420491,92.5051317 C8.21420491,92.5051317 8.22373439,88.5657236 5.05993489,86.1876315 Z" id="Path-5" fill="#43A047"></path>
                        <path d="M19.6278495,69.9272636 C19.6278495,69.9272636 25.2585233,76.7814665 25.2585233,83.4221283 C29.6859366,80.1835382 41.8170112,69.2327821 41.8170112,69.2327821 C41.8170112,69.2327821 37.10943,56.2315315 32.3986723,54.9192403 C28.7977856,58.8256985 19.6278495,69.9272636 19.6278495,69.9272636 Z" id="Path-6" fill="#43A047"></path>
                        <path d="M29.5159912,45.0640219 C29.5159912,45.0640219 36.0454016,44.5026033 40.3599974,48.8078739 C44.6745932,53.1131445 46.0535375,54.6282595 47.5877048,59.1756137 C48.763676,63.0174767 48.4844439,65.4376519 48.4844439,65.4376519 L44.4091957,69.3189505 C44.4091957,69.3189505 42.0217325,58.0830561 38.2118274,55.2744854 C36.1670543,53.1221849 32.1377964,50.5048205 28.0807495,49.9834618 C25.9289395,49.7069393 24.9676514,50.1324467 24.9676514,49.5049716 C24.9676514,48.8774965 29.5159912,45.0640219 29.5159912,45.0640219 Z" id="Path-7" fill="#43A047"></path>
                        <path d="M36.7057249,46.2334116 C36.7057249,46.2334116 31.9076666,44.7071221 29.4146547,45.028385 C26.6123196,42.6464278 23.6470882,39.0363225 23.6470882,39.0363225 C23.6470882,39.0363225 21.0431337,35.0058891 21.4729979,31.7174877 C21.9028621,28.4290864 23.1590658,28.2151342 25.3417969,26.0720374 C31.2365725,20.2842997 40.8499832,25.0466878 40.8499832,25.0466878 C40.8499832,25.0466878 66.6231681,40.7387921 68.8207688,55.4850715 C71.0183695,70.2313509 68.5961914,68.7657265 65.016478,71.6238836 C61.5325913,73.2666393 48.9112653,67.0828373 48.6252746,65.5883374 C48.5162741,64.9790879 46.7756829,57.5971534 46.7756829,57.5971534 C46.7756829,57.5971534 45.8773783,54.2191262 42.8303966,51.343588 C39.7834148,48.4680497 39.4103941,47.94594 36.7057249,46.2334116 Z" id="Path-8" fill="#388E3C"></path>
                        <path d="M43.9851379,5.66352984 C43.9851379,5.66352984 51.6689011,8.41757965 57.9905593,11.306443 C62.2267844,13.2423077 65.4886963,15.3486498 67.5855256,17.7974117 C75.4979929,23.5305162 83.6084604,35.7841622 83.6084604,35.7841622 C83.6084604,35.7841622 89.5279847,45.9748466 89.5693952,49.7856119 C92.1069336,48.5881696 93.5034256,47.0818289 93.8180294,45.0068511 C92.6028884,40.142059 89.5693952,35.3206484 82.294696,25.264118 C80.8932233,23.6650943 76.4819318,18.1697299 76.4819318,18.1697299 C76.4819318,18.1697299 67.0979308,10.2948185 64.6879846,8.87109024 C58.8539365,5.42449924 58.120187,5.09917852 51.7565918,2.68301038 C50.3790283,1.86330662 47.5376393,1.44052805 46.9667816,1.54887885 C43.9226532,2.36683239 43.9851379,5.66352984 43.9851379,5.66352984 Z" id="Path-9" fill="#43A047"></path>
                    </g>
                </g>
                <g id="Sriracha-Decal" transform="translate(0.000000, 169.000000)">
                    <g id="Oval-7">
                        <use stroke="#B71C1C" stroke-width="2" stroke-linejoin="bevel" fill="#FF5722" fill-rule="evenodd" sketch:type="MSShapeGroup" xlink:href="#path-1"></use>
                        <use stroke="none" fill="none" xlink:href="#path-1"></use>
                    </g>
                    <g id="Oval-7-Copy-6">
                        <use stroke="#B71C1C" stroke-width="2" stroke-linejoin="bevel" fill="#FF5722" fill-rule="evenodd" sketch:type="MSShapeGroup" xlink:href="#path-2"></use>
                        <use stroke="none" fill="none" xlink:href="#path-2"></use>
                    </g>
                    <g id="Oval-7-Copy-5">
                        <use stroke="#B71C1C" stroke-width="2" stroke-linejoin="bevel" fill="#FF5722" fill-rule="evenodd" sketch:type="MSShapeGroup" xlink:href="#path-3"></use>
                        <use stroke="none" fill="none" xlink:href="#path-3"></use>
                    </g>
                    <g id="Oval-7-Copy-4">
                        <use stroke="#B71C1C" stroke-width="2" stroke-linejoin="bevel" fill="#FF5722" fill-rule="evenodd" sketch:type="MSShapeGroup" xlink:href="#path-4"></use>
                        <use stroke="none" fill="none" xlink:href="#path-4"></use>
                    </g>
                    <g id="Oval-7-Copy">
                        <use stroke="#B71C1C" stroke-width="2" stroke-linejoin="bevel" fill="#FF5722" fill-rule="evenodd" sketch:type="MSShapeGroup" xlink:href="#path-5"></use>
                        <use stroke="none" fill="none" xlink:href="#path-5"></use>
                    </g>
                    <g id="Oval-7-Copy-2">
                        <use stroke="#B71C1C" stroke-width="2" stroke-linejoin="bevel" fill="#FF5722" fill-rule="evenodd" sketch:type="MSShapeGroup" xlink:href="#path-6"></use>
                        <use stroke="none" fill="none" xlink:href="#path-6"></use>
                    </g>
                    <g id="Oval-7-Copy-7">
                        <use stroke="#B71C1C" stroke-width="2" stroke-linejoin="bevel" fill="#FF5722" fill-rule="evenodd" sketch:type="MSShapeGroup" xlink:href="#path-7"></use>
                        <use stroke="none" fill="none" xlink:href="#path-7"></use>
                    </g>
                    <g id="Oval-7-Copy-9">
                        <use stroke="#B71C1C" stroke-width="2" stroke-linejoin="bevel" fill="#FF5722" fill-rule="evenodd" sketch:type="MSShapeGroup" xlink:href="#path-8"></use>
                        <use stroke="none" fill="none" xlink:href="#path-8"></use>
                    </g>
                    <g id="Oval-7-Copy-8">
                        <use stroke="#B71C1C" stroke-width="2" stroke-linejoin="bevel" fill="#FF5722" fill-rule="evenodd" sketch:type="MSShapeGroup" xlink:href="#path-9"></use>
                        <use stroke="none" fill="none" xlink:href="#path-9"></use>
                    </g>
                    <g id="Oval-7-Copy-11">
                        <use stroke="#B71C1C" stroke-width="2" stroke-linejoin="bevel" fill="#FF5722" fill-rule="evenodd" sketch:type="MSShapeGroup" xlink:href="#path-10"></use>
                        <use stroke="none" fill="none" xlink:href="#path-10"></use>
                    </g>
                    <g id="Oval-7-Copy-10">
                        <use stroke="#B71C1C" stroke-width="2" stroke-linejoin="bevel" fill="#FF5722" fill-rule="evenodd" sketch:type="MSShapeGroup" xlink:href="#path-11"></use>
                        <use stroke="none" fill="none" xlink:href="#path-11"></use>
                    </g>
                    <g id="Oval-7-Copy-3">
                        <use stroke="#B71C1C" stroke-width="2" stroke-linejoin="bevel" fill="#FF5722" fill-rule="evenodd" sketch:type="MSShapeGroup" xlink:href="#path-12"></use>
                        <use stroke="none" fill="none" xlink:href="#path-12"></use>
                    </g>
                    <g id="Shape">
                        <use stroke="#B71C1C" stroke-width="2" stroke-linejoin="bevel" fill="#FF5722" fill-rule="evenodd" sketch:type="MSShapeGroup" xlink:href="#path-13"></use>
                        <use stroke="none" fill="none" xlink:href="#path-13"></use>
                    </g>
                </g>
            </g>
        </g>
    </g>
</svg>