<?xml version="1.0" encoding="UTF-8" standalone="no"?>
<svg width="75px" height="75px" viewBox="0 0 75 75" version="1.1" xmlns="http://www.w3.org/2000/svg" xmlns:xlink="http://www.w3.org/1999/xlink" xmlns:sketch="http://www.bohemiancoding.com/sketch/ns">
    <!-- Generator: Sketch 3.4.4 (17249) - http://www.bohemiancoding.com/sketch -->
    <title>food-info-icn copy</title>
    <desc>Created with Sketch.</desc>
    <defs>
        <filter x="-50%" y="-50%" width="200%" height="200%" filterUnits="objectBoundingBox" id="filter-1">
            <feOffset dx="0" dy="2" in="SourceAlpha" result="shadowOffsetOuter1"></feOffset>
            <feGaussianBlur stdDeviation="2" in="shadowOffsetOuter1" result="shadowBlurOuter1"></feGaussianBlur>
            <feColorMatrix values="0 0 0 0 0   0 0 0 0 0   0 0 0 0 0  0 0 0 0.35 0" in="shadowBlurOuter1" type="matrix" result="shadowMatrixOuter1"></feColorMatrix>
            <feMerge>
                <feMergeNode in="shadowMatrixOuter1"></feMergeNode>
                <feMergeNode in="SourceGraphic"></feMergeNode>
            </feMerge>
        </filter>
        <circle id="path-2" cx="32.5" cy="32.5" r="32.5"></circle>
    </defs>
    <g id="assets" stroke="none" stroke-width="1" fill="none" fill-rule="evenodd" sketch:type="MSPage">
        <g id="Group-Copy-2" sketch:type="MSLayerGroup" transform="translate(4.000000, 2.000000)">
            <g id="Oval-19" filter="url(#filter-1)">
                <use fill="#FF5722" fill-rule="evenodd" sketch:type="MSShapeGroup" xlink:href="#path-2"></use>
                <use fill="none" xlink:href="#path-2"></use>
                <use fill="none" xlink:href="#path-2"></use>
            </g>
            <g id="Shape-+-Shape-+-Oval-1" transform="translate(5.201982, 6.787348)" fill="#FFFFFF" sketch:type="MSShapeGroup">
                <g id="Shape-+-Shape" transform="translate(11.121415, 9.523205)">
                    <path d="M27.566737,31.6309261 C17.5492998,31.6309261 8.0088834,26.7265637 1.94390439,18.574718 C0.240258605,16.3213623 -0.236762215,13.4052549 0.649133595,11.085624 C1.19430025,9.62757034 2.28463355,8.63344282 3.57940435,8.36834215 C3.98827934,8.30206698 4.3290085,8.23579181 4.73788349,8.23579181 C7.39557092,8.23579181 10.1214042,10.2240469 11.2798833,13.1401542 C14.3464457,20.9606241 21.7061955,26.6602885 30.428862,28.052067 C31.4510494,28.1846174 32.2006536,28.9136442 32.2006536,29.7752214 C32.2006536,30.5042483 31.5873411,31.2995503 30.3607161,31.4321006 C29.4066745,31.564651 28.4526329,31.6309261 27.566737,31.6309261 L27.566737,31.6309261 Z M4.73788349,9.62757034 C4.46530016,9.62757034 4.124571,9.62757034 3.85198768,9.69384551 C2.96609187,9.89267101 2.28463355,10.5554227 1.87575856,11.5495502 C1.12615442,13.4052549 1.60317524,15.8574361 2.96609187,17.7131408 C8.82663338,25.5336107 17.9581748,30.2391476 27.4985912,30.2391476 C28.384487,30.2391476 29.2703828,30.1728724 30.1562786,30.1065973 C30.4970078,30.0403221 30.7695911,29.9077718 30.7695911,29.7089462 C30.7695911,29.5101207 30.5651536,29.3775704 30.1562786,29.3112952 C21.0247372,27.9857919 13.2561124,21.9547516 10.0532583,13.6703556 C9.03107087,11.2844495 6.9185501,9.62757034 4.73788349,9.62757034 L4.73788349,9.62757034 Z" id="Shape"></path>
                    <path d="M3.0342377,9.95894618 C2.8298002,9.95894618 2.62536271,9.89267101 2.48907105,9.76012068 C2.42092521,9.62757034 -0.44119971,6.31381194 0.308404437,1.07807367 C0.376550268,0.746697828 0.717279426,0.481597156 1.05800858,0.481597156 C1.39873774,0.547872324 1.67132107,0.879248164 1.67132107,1.210624 C0.989862752,5.91616093 3.51125852,8.83226832 3.51125852,8.89854349 C3.78384184,9.16364416 3.71569601,9.56129517 3.44311269,9.82639584 C3.37496686,9.89267101 3.17052936,9.95894618 3.0342377,9.95894618 L3.0342377,9.95894618 Z" id="Shape"></path>
                </g>
                <path d="M27.2980183,51.4253049 C42.3742975,51.4253049 54.5960366,39.9133583 54.5960366,25.7126524 C54.5960366,11.5119466 42.3742975,0 27.2980183,0 C12.2217391,0 0,11.5119466 0,25.7126524 C0,39.9133583 12.2217391,51.4253049 27.2980183,51.4253049 Z M27.2980183,49.520664 C41.2575361,49.520664 52.5739612,38.8614541 52.5739612,25.7126524 C52.5739612,12.5638508 41.2575361,1.90464092 27.2980183,1.90464092 C13.3385005,1.90464092 2.02207543,12.5638508 2.02207543,25.7126524 C2.02207543,38.8614541 13.3385005,49.520664 27.2980183,49.520664 Z" id="Oval-1"></path>
            </g>
        </g>
    </g>
</svg>