<?xml version="1.0" encoding="UTF-8" standalone="no"?>
<svg width="58px" height="58px" viewBox="0 0 58 58" version="1.1" xmlns="http://www.w3.org/2000/svg" xmlns:xlink="http://www.w3.org/1999/xlink" xmlns:sketch="http://www.bohemiancoding.com/sketch/ns">
    <!-- Generator: Sketch 3.4.4 (17249) - http://www.bohemiancoding.com/sketch -->
    <title>food-info-icn</title>
    <desc>Created with Sketch.</desc>
    <defs>
        <filter x="-50%" y="-50%" width="200%" height="200%" filterUnits="objectBoundingBox" id="filter-1">
            <feOffset dx="0" dy="2" in="SourceAlpha" result="shadowOffsetOuter1"></feOffset>
            <feGaussianBlur stdDeviation="2" in="shadowOffsetOuter1" result="shadowBlurOuter1"></feGaussianBlur>
            <feColorMatrix values="0 0 0 0 0   0 0 0 0 0   0 0 0 0 0  0 0 0 0.35 0" in="shadowBlurOuter1" type="matrix" result="shadowMatrixOuter1"></feColorMatrix>
            <feMerge>
                <feMergeNode in="shadowMatrixOuter1"></feMergeNode>
                <feMergeNode in="SourceGraphic"></feMergeNode>
            </feMerge>
        </filter>
        <circle id="path-2" cx="25" cy="25" r="25"></circle>
    </defs>
    <g id="assets" stroke="none" stroke-width="1" fill="none" fill-rule="evenodd" sketch:type="MSPage">
        <g id="Group-Copy" sketch:type="MSLayerGroup" transform="translate(4.000000, 2.000000)">
            <g id="Oval-19" filter="url(#filter-1)">
                <use fill="#FF5722" fill-rule="evenodd" sketch:type="MSShapeGroup" xlink:href="#path-2"></use>
                <use fill="none" xlink:href="#path-2"></use>
                <use fill="none" xlink:href="#path-2"></use>
            </g>
            <g id="Shape-+-Shape-+-Oval-1" transform="translate(4.001524, 5.221037)" fill="#FFFFFF" sketch:type="MSShapeGroup">
                <g id="Shape-+-Shape" transform="translate(8.554935, 7.325542)">
                    <path d="M21.2051823,24.3314816 C13.4994614,24.3314816 6.16067954,20.5588951 1.49531107,14.2882446 C0.184814312,12.5548941 -0.182124781,10.3117346 0.499333534,8.52740311 C0.918692498,7.40582334 1.75741042,6.64110986 2.75338796,6.43718627 C3.06790718,6.38620537 3.33000654,6.33522447 3.64452576,6.33522447 C5.6889007,6.33522447 7.78569552,7.86465143 8.67683332,10.107811 C11.0357275,16.123557 16.6970735,20.5079142 23.4068169,21.5785131 C24.193115,21.6804749 24.7697335,22.2412648 24.7697335,22.9040165 C24.7697335,23.4648064 24.2979547,24.0765771 23.354397,24.1785389 C22.6205188,24.2805007 21.8866407,24.3314816 21.2051823,24.3314816 L21.2051823,24.3314816 Z M3.64452576,7.40582334 C3.43484628,7.40582334 3.17274692,7.40582334 2.96306744,7.45680424 C2.28160913,7.60974693 1.75741042,8.11955592 1.4428912,8.88426939 C0.866272627,10.3117346 1.23321172,12.1980278 2.28160913,13.625493 C6.78971798,19.641239 13.8139806,23.2608828 21.1527625,23.2608828 C21.8342208,23.2608828 22.5156791,23.2099019 23.1971374,23.158921 C23.4592368,23.1079401 23.6689163,23.0059783 23.6689163,22.8530356 C23.6689163,22.7000929 23.5116566,22.5981311 23.1971374,22.5471502 C16.1728748,21.5275322 10.1970096,16.8882705 7.73327565,10.5156581 C6.94697759,8.6803458 5.32196161,7.40582334 3.64452576,7.40582334 L3.64452576,7.40582334 Z" id="Shape"></path>
                    <path d="M2.334029,7.66072783 C2.17676939,7.66072783 2.01950978,7.60974693 1.91467004,7.50778514 C1.86225016,7.40582334 -0.339384392,4.85677842 0.237234182,0.829287437 C0.289654053,0.574382945 0.551753405,0.370459351 0.813852757,0.370459351 C1.07595211,0.421440249 1.28563159,0.676344742 1.28563159,0.931249234 C0.761432886,4.55089303 2.70096809,6.79405256 2.70096809,6.84503346 C2.91064757,7.04895705 2.8582277,7.35484244 2.64854822,7.55876603 C2.59612835,7.60974693 2.43886874,7.66072783 2.334029,7.66072783 L2.334029,7.66072783 Z" id="Shape"></path>
                </g>
                <path d="M20.9984756,39.5579268 C32.5956135,39.5579268 41.9969512,30.7025833 41.9969512,19.7789634 C41.9969512,8.85534355 32.5956135,0 20.9984756,0 C9.40133776,0 0,8.85534355 0,19.7789634 C0,30.7025833 9.40133776,39.5579268 20.9984756,39.5579268 Z M20.9984756,38.0928184 C31.7365662,38.0928184 40.4415086,29.8934262 40.4415086,19.7789634 C40.4415086,9.66450058 31.7365662,1.4651084 20.9984756,1.4651084 C10.260385,1.4651084 1.55544264,9.66450058 1.55544264,19.7789634 C1.55544264,29.8934262 10.260385,38.0928184 20.9984756,38.0928184 Z" id="Oval-1"></path>
            </g>
        </g>
    </g>
</svg>