<?xml version="1.0" encoding="UTF-8" standalone="no"?>
<svg width="54px" height="54px" viewBox="0 0 54 54" version="1.1" xmlns="http://www.w3.org/2000/svg" xmlns:xlink="http://www.w3.org/1999/xlink" xmlns:sketch="http://www.bohemiancoding.com/sketch/ns">
    <!-- Generator: Sketch 3.4.3 (16618) - http://www.bohemiancoding.com/sketch -->
    <title>Group</title>
    <desc>Created with Sketch.</desc>
    <defs></defs>
    <g id="assets" stroke="none" stroke-width="1" fill="none" fill-rule="evenodd" sketch:type="MSPage">
        <g id="pastaImage" sketch:type="MSLayerGroup" transform="translate(-626.000000, -16.000000)"></g>
        <g id="Group" sketch:type="MSLayerGroup" fill="#FFFFFF">
            <g id="Shape-+-Shape" transform="translate(11.000000, 10.000000)" sketch:type="MSShapeGroup">
                <path d="M27.2657851,33.2145821 C17.3577104,33.2145821 7.92144871,28.0646744 1.92268237,19.5046928 C0.237635651,17.138519 -0.234177432,14.0764117 0.642046865,11.6406446 C1.18126182,10.109591 2.25969172,9.06569078 3.54032723,8.78731739 C3.94473844,8.71772405 4.28174779,8.6481307 4.686159,8.6481307 C7.31483189,8.6481307 10.0109066,10.7359311 11.1567384,13.7980384 C14.1898225,22.0100533 21.4692244,27.9950811 30.0966636,29.4565414 C31.1076916,29.5957281 31.8491122,30.3612549 31.8491122,31.2659684 C31.8491122,32.0314952 31.2424954,32.8666154 30.0292617,33.0058021 C29.0856356,33.1449887 28.1420094,33.2145821 27.2657851,33.2145821 L27.2657851,33.2145821 Z M4.686159,10.109591 C4.41655153,10.109591 4.07954218,10.109591 3.8099347,10.1791843 C2.93371041,10.3879644 2.25969172,11.0838978 1.85528051,12.127798 C1.11385995,14.0764117 1.58567303,16.6513656 2.93371041,18.5999793 C8.73027114,26.8119942 17.7621216,31.7531218 27.1983832,31.7531218 C28.0746075,31.7531218 28.9508318,31.6835285 29.8270561,31.6139351 C30.1640655,31.5443418 30.4336729,31.4051551 30.4336729,31.196375 C30.4336729,30.987595 30.2314673,30.8484083 29.8270561,30.778815 C20.7952057,29.386948 13.1113926,23.0539535 9.94350478,14.3547851 C8.93247674,11.8494246 6.84301881,10.109591 4.686159,10.109591 L4.686159,10.109591 Z" id="Shape"></path>
                <path d="M3.00111228,10.4575577 C2.79890667,10.4575577 2.59670106,10.3879644 2.46189733,10.2487777 C2.39449546,10.109591 -0.436383038,6.62992365 0.30503752,1.13204926 C0.372439389,0.784082521 0.709448733,0.505709135 1.04645808,0.505709135 C1.38346742,0.575302481 1.6530749,0.923269215 1.6530749,1.27123595 C0.979056209,6.21236357 3.47292536,9.27447082 3.47292536,9.34406417 C3.74253284,9.62243755 3.67513097,10.0399976 3.40552349,10.318371 C3.33812162,10.3879644 3.13591602,10.4575577 3.00111228,10.4575577 L3.00111228,10.4575577 Z" id="Shape"></path>
            </g>
            <path d="M27,54 C41.9116882,54 54,41.9116882 54,27 C54,12.0883118 41.9116882,0 27,0 C12.0883118,0 0,12.0883118 0,27 C0,41.9116882 12.0883118,54 27,54 Z M27,52 C40.8071187,52 52,40.8071187 52,27 C52,13.1928813 40.8071187,2 27,2 C13.1928813,2 2,13.1928813 2,27 C2,40.8071187 13.1928813,52 27,52 Z" id="Oval-1" sketch:type="MSShapeGroup"></path>
        </g>
    </g>
</svg>