<?xml version="1.0" encoding="UTF-8" standalone="no"?>
<svg width="57px" height="56px" viewBox="0 0 57 56" version="1.1" xmlns="http://www.w3.org/2000/svg" xmlns:xlink="http://www.w3.org/1999/xlink" xmlns:sketch="http://www.bohemiancoding.com/sketch/ns">
    <!-- Generator: Sketch 3.4.3 (16618) - http://www.bohemiancoding.com/sketch -->
    <title>yelp icon</title>
    <desc>Created with Sketch.</desc>
    <defs>
        <filter x="-50%" y="-50%" width="200%" height="200%" filterUnits="objectBoundingBox" id="filter-1">
            <feOffset dx="0" dy="2" in="SourceAlpha" result="shadowOffsetOuter1"></feOffset>
            <feGaussianBlur stdDeviation="2" in="shadowOffsetOuter1" result="shadowBlurOuter1"></feGaussianBlur>
            <feColorMatrix values="0 0 0 0 0   0 0 0 0 0   0 0 0 0 0  0 0 0 0.35 0" in="shadowBlurOuter1" type="matrix" result="shadowMatrixOuter1"></feColorMatrix>
            <feMerge>
                <feMergeNode in="shadowMatrixOuter1"></feMergeNode>
                <feMergeNode in="SourceGraphic"></feMergeNode>
            </feMerge>
        </filter>
        <ellipse id="path-2" cx="24.1546114" cy="24.1297297" rx="24.1546114" ry="24.1297297"></ellipse>
    </defs>
    <g id="assets" stroke="none" stroke-width="1" fill="none" fill-rule="evenodd" sketch:type="MSPage">
        <g id="quick-access-buttons" sketch:type="MSLayerGroup" transform="translate(-208.000000, 0.000000)">
            <g id="yelp-icon" transform="translate(212.538462, 2.000000)">
                <g id="Oval-19-Copy" filter="url(#filter-1)">
                    <use fill="#FF5722" fill-rule="evenodd" sketch:type="MSShapeGroup" xlink:href="#path-2"></use>
                    <use fill="none" xlink:href="#path-2"></use>
                </g>
                <g id="yelp1" transform="translate(13.586969, 9.048649)" fill="#FFFFFF" sketch:type="MSShapeGroup">
                    <g id="Icons">
                        <path d="M3.65174211,1.30503297 C5.06252238,0.169058919 7.77498755,-0.156323784 8.89111709,0.0652675676 C10.0081791,0.285585405 10.5915751,0.925525946 10.5987238,1.70491622 L10.6630621,11.6415054 C10.6680351,12.4218508 10.2726809,13.1391573 9.78346125,13.2356259 C9.29175506,13.3301843 8.56818237,12.866307 8.17034171,12.2024881 L3.0807786,3.68236432 C2.68604607,3.01759027 1.89036475,2.72436378 3.65174211,1.30503297 L3.65174211,1.30503297 Z M1.96185175,20.1998346 L7.0859151,18.3424151 C7.79985259,18.0829368 8.43950578,17.361173 8.51130358,16.7342859 C8.58061489,16.1073989 8.06155715,15.3630303 7.35756568,15.0777632 L1.94475703,12.8790422 C1.24014393,12.5937751 0.427367895,13.2703292 0.212906915,14.3773308 C0.212906915,14.3773308 0.0842303269,18.2325746 0.212906915,19.0307492 C0.343137568,19.828287 1.24791425,20.4602681 1.96185175,20.1998346 L1.96185175,20.1998346 Z M10.8999016,21.1279076 C10.9148206,20.3453335 10.5070339,19.670053 9.99357085,19.6219778 C9.47979694,19.5732659 8.66422359,20.0221795 8.17717959,20.6181838 L4.60282993,25.0086216 C4.11609675,25.6052627 4.35790927,27.0064459 5.06718457,27.2716551 L8.80471107,28.6015216 C9.51616206,28.8667308 10.7690493,28.0819281 10.7836575,27.3019011 L10.8999016,21.1279076 L10.8999016,21.1279076 Z M19.7848024,20.105913 L15.3028788,18.7859162 C14.5761979,18.5719659 13.7513002,18.5923422 13.4718793,18.8343097 C13.1924584,19.0737303 13.2617697,19.8305157 13.6275966,20.5137557 L16.4563059,25.8163476 C16.8221328,26.4992692 18.2848188,26.3821059 18.6876325,25.7195605 C18.6876325,25.7195605 20.3924419,23.1432427 20.7060522,22.1772827 C21.0196625,21.2094124 20.5108616,20.3195449 19.7848024,20.105913 L19.7848024,20.105913 Z M20.8763777,12.6494914 C20.6743493,11.9786681 19.2732042,10.0009016 18.5141988,9.32689459 C17.7561259,8.65129568 16.8889576,8.73598432 16.3997379,9.32912324 L13.5113525,12.8535719 C13.0221329,13.4467108 12.8912806,14.3875189 13.2176342,14.9405422 C13.5436771,15.4935654 14.4136427,15.8071681 15.1518236,15.6371541 L20.147832,14.6883865 C21.0495006,14.4667951 21.0815143,13.3203146 20.8763777,12.6494914 L20.8763777,12.6494914 Z" id="Yelp"></path>
                    </g>
                </g>
            </g>
        </g>
    </g>
</svg>